<svg width="24" height="24" viewBox="0 0 24 24" fill="none" xmlns="http://www.w3.org/2000/svg">
<path d="M11.5 4C15.2712 4 17.1566 4.0003 18.3281 5.17188C19.2047 6.04841 19.4259 7.32462 19.4814 9.49121C19.4888 9.77306 19.718 10 20 10C20.9427 10 21.4141 10.0001 21.707 10.293C21.9999 10.5859 22 11.0572 22 12C22 12.9428 21.9999 13.4141 21.707 13.707C21.4141 13.9999 20.9427 14 20 14C19.718 14 19.4888 14.2269 19.4814 14.5088C19.4259 16.6754 19.2047 17.9516 18.3281 18.8281C17.1566 19.9997 15.2712 20 11.5 20H10C6.22876 20 4.34345 19.9997 3.17188 18.8281C2.0003 17.6566 2 15.7712 2 12C2 8.22876 2.0003 6.34345 3.17188 5.17188C4.34345 4.0003 6.22876 4 10 4H11.5ZM6.43652 8C6.0547 8.00009 5.73163 8.28102 5.68652 8.66016C5.5878 9.49258 5.43652 10.9426 5.43652 12C5.43652 13.0574 5.5878 14.5074 5.68652 15.3398C5.73163 15.719 6.0547 15.9999 6.43652 16C6.81841 16 7.14139 15.719 7.18652 15.3398C7.28525 14.5074 7.43652 13.0574 7.43652 12C7.43652 10.9426 7.28525 9.49258 7.18652 8.66016C7.14139 8.28098 6.81841 8 6.43652 8ZM10.7383 8C10.3566 8.00021 10.0344 8.28114 9.98926 8.66016C9.89053 9.49258 9.73828 10.9426 9.73828 12C9.73828 13.0574 9.89053 14.5074 9.98926 15.3398C10.0344 15.7189 10.3566 15.9998 10.7383 16C11.1202 16 11.4431 15.719 11.4883 15.3398C11.587 14.5074 11.7383 13.0574 11.7383 12C11.7383 10.9426 11.587 9.49258 11.4883 8.66016C11.4431 8.28099 11.1202 8 10.7383 8ZM15.04 8C14.6583 8.00019 14.3362 8.28113 14.291 8.66016C14.1923 9.49258 14.04 10.9426 14.04 12C14.04 13.0574 14.1923 14.5074 14.291 15.3398C14.3362 15.7189 14.6583 15.9998 15.04 16C15.4219 16 15.7449 15.719 15.79 15.3398C15.8888 14.5074 16.04 13.0574 16.04 12C16.04 10.9426 15.8888 9.49258 15.79 8.66016C15.7449 8.28099 15.4219 8 15.04 8Z" fill="#464A4D"/>
</svg>
