<svg width="111" height="110" viewBox="0 0 111 110" fill="none" xmlns="http://www.w3.org/2000/svg">
<rect x="0.5" width="110" height="110" rx="55" fill="#BBC5CC"/>
<path d="M55.501 52.1048C58.9931 52.1054 61.8273 54.9557 61.8279 58.4719C61.8279 61.9886 58.9935 64.8418 55.501 64.8424C52.0085 64.8418 49.1774 61.9886 49.1774 58.4719C49.178 54.9557 52.0088 52.1054 55.501 52.1048Z" fill="white"/>
<path fill-rule="evenodd" clip-rule="evenodd" d="M58.5667 33C60.8132 33 62.7654 34.5543 63.2833 36.7551C63.9199 39.4634 66.6084 40.8488 69.3037 40.2321C70.0639 40.0583 70.8287 39.9472 71.6013 39.9472C75.4111 39.9479 78.5005 43.5758 78.501 48.0511C78.501 48.7652 78.4204 49.4582 78.2719 50.117C77.6322 52.9531 77.3488 55.7027 77.3488 58.611C77.3489 61.568 77.7349 64.3421 78.3325 67.2373C78.4428 67.7713 78.5009 68.3257 78.501 68.8927C78.501 71.0722 77.6405 73.0502 76.2505 74.5067C76.2323 74.5259 76.2198 74.5499 76.2101 74.5746C76.1895 74.6279 76.1451 74.6726 76.0922 74.6933C76.0677 74.7031 76.0438 74.7157 76.0248 74.734C74.578 76.1343 72.6143 77 70.4491 77H40.5528C36.1076 77 32.5017 73.8891 32.501 70.0528C32.501 66.526 33.6529 63.1588 33.6532 59.632V59.1402C33.6532 55.6572 32.9017 52.3602 32.5448 48.8958C32.5162 48.6186 32.501 48.336 32.501 48.0511C32.5013 45.8564 33.371 43.8658 34.7784 42.4065C34.7931 42.3908 34.8018 42.3704 34.802 42.3489C34.802 42.3052 34.8457 42.2801 34.8862 42.2641C34.9247 42.249 34.9607 42.2248 34.9906 42.1962C36.4359 40.8048 38.3954 39.9472 40.5528 39.9472C41.0555 39.9472 41.5561 39.9852 42.0554 40.049C44.6207 40.3769 47.1779 39.0336 47.7759 36.5007C48.2595 34.4498 50.079 33.0004 52.1724 33H58.5667ZM55.501 46.8944C49.1509 46.895 44.0033 52.0781 44.0027 58.4719C44.0027 64.6671 48.835 69.7263 54.9114 70.0359L55.501 70.0528C61.6529 70.0522 66.6778 65.1863 66.9858 59.0689L67.0027 58.4719C67.0021 52.0781 61.851 46.895 55.501 46.8944Z" fill="white"/>
</svg>
