<svg width="24" height="24" viewBox="0 0 24 24" fill="none" xmlns="http://www.w3.org/2000/svg">
<path d="M13.4014 2C14.4311 2.00006 15.3253 2.70796 15.5625 3.70996C15.8544 4.94256 17.0855 5.57063 18.3203 5.28809C18.6669 5.20878 19.0157 5.15823 19.3682 5.1582C21.1121 5.1582 22.5262 6.80721 22.5264 8.8418C22.5264 9.16655 22.4899 9.48166 22.4219 9.78125C22.1291 11.0704 22 12.3197 22 13.6416C22 14.9859 22.1756 16.2473 22.4492 17.5635C22.4997 17.8062 22.5263 18.0577 22.5264 18.3154C22.5264 19.302 22.1373 20.1971 21.5059 20.8584C21.4925 20.8724 21.4811 20.8893 21.4736 20.9072V20.9092C21.466 20.9274 21.4543 20.9473 21.4346 20.9473C21.4248 20.9474 21.4153 20.9513 21.4082 20.958C20.7448 21.6023 19.8396 22 18.8418 22H5.1582C3.12347 22 1.47363 20.5859 1.47363 18.8418C1.4737 17.2387 1.99996 15.7086 2 14.1055V13.8818C1.99995 12.2987 1.65653 10.8003 1.49316 9.22559C1.48009 9.09956 1.47363 8.9713 1.47363 8.8418C1.47371 7.84409 1.87142 6.93972 2.51562 6.27637C2.52259 6.26912 2.52637 6.25908 2.52637 6.24902C2.52647 6.22774 2.54413 6.21094 2.56543 6.21094C2.57539 6.21083 2.58464 6.20616 2.5918 6.19922C3.25522 5.55494 4.16038 5.1582 5.1582 5.1582C5.38886 5.15822 5.6186 5.17491 5.84766 5.2041C7.02194 5.35377 8.19174 4.74357 8.46484 3.5918C8.68581 2.65908 9.51901 2 10.4775 2H13.4014ZM12 8C9.23858 8 7 10.2386 7 13C7 15.7614 9.23858 18 12 18C14.7614 18 17 15.7614 17 13C17 10.2386 14.7614 8 12 8ZM12 10C13.6569 10 15 11.3431 15 13C15 14.6569 13.6569 16 12 16C10.3431 16 9 14.6569 9 13C9 11.3431 10.3431 10 12 10Z" fill="#464A4D"/>
</svg>
