<svg width="32" height="32" viewBox="0 0 32 32" fill="none" xmlns="http://www.w3.org/2000/svg">
<rect x="1" y="1" width="30" height="30" rx="15" fill="#BBC5CC"/>
<rect x="1" y="1" width="30" height="30" rx="15" stroke="white" stroke-width="2"/>
<path d="M16.8887 10C17.5399 10 18.1057 10.4474 18.2559 11.0811C18.4404 11.8607 19.2197 12.2596 20.001 12.082C20.2213 12.032 20.443 12 20.667 12C21.7713 12.0002 22.6668 13.0446 22.667 14.333C22.667 14.5386 22.6436 14.7381 22.6006 14.9277C22.4152 15.7442 22.333 16.5358 22.333 17.373C22.333 18.2243 22.4449 19.023 22.6182 19.8564C22.6501 20.0102 22.667 20.1698 22.667 20.333C22.667 20.9605 22.4176 21.5299 22.0146 21.9492C22.0094 21.9547 22.0058 21.9616 22.0029 21.9688C21.997 21.9841 21.9841 21.997 21.9688 22.0029C21.9616 22.0058 21.9547 22.0094 21.9492 22.0146C21.5299 22.4178 20.9606 22.667 20.333 22.667H11.667C10.3785 22.667 9.33321 21.7714 9.33301 20.667C9.33301 19.6517 9.66692 18.6823 9.66699 17.667V17.5254C9.66699 16.5227 9.44917 15.5735 9.3457 14.5762C9.33743 14.4964 9.33301 14.415 9.33301 14.333C9.33309 13.7012 9.58519 13.1281 9.99316 12.708C9.99743 12.7035 9.99994 12.6976 10 12.6914C10 12.6788 10.0127 12.6716 10.0244 12.667C10.0356 12.6627 10.046 12.6557 10.0547 12.6475C10.4736 12.2469 11.0416 12 11.667 12C11.8127 12 11.9578 12.0109 12.1025 12.0293C12.8461 12.1237 13.5874 11.737 13.7607 11.0078C13.9009 10.4174 14.4283 10.0001 15.0352 10H16.8887ZM16 14C14.1593 14.0002 12.6672 15.4923 12.667 17.333C12.667 19.1165 14.0677 20.573 15.8291 20.6621L16 20.667C17.7833 20.6668 19.2398 19.266 19.3291 17.5049L19.334 17.333C19.3338 15.4923 17.8407 14.0002 16 14ZM16 15.5C17.0123 15.5002 17.8338 16.3207 17.834 17.333C17.834 18.3454 17.0124 19.1668 16 19.167C14.9876 19.1668 14.167 18.3454 14.167 17.333C14.1672 16.3207 14.9877 15.5002 16 15.5Z" fill="white"/>
</svg>
