<svg width="20" height="20" viewBox="0 0 20 20" fill="none" xmlns="http://www.w3.org/2000/svg">
<path d="M13.3736 0.020058C17.0928 -0.283517 20.2839 2.90822 19.98 6.62748C19.8837 7.80615 19.8208 8.97295 19.8208 10.0005C19.8209 11.0279 19.8837 12.1942 19.98 13.3726C20.2839 17.0919 17.0928 20.2836 13.3736 19.98C12.195 19.8837 11.0281 19.8208 10.0005 19.8208C8.97295 19.8208 7.80617 19.8837 6.62749 19.98C2.90809 20.2839 -0.283831 17.092 0.0200642 13.3726C0.116342 12.1942 0.180209 11.0279 0.18022 10.0005C0.18022 8.97294 0.116369 7.80616 0.0200642 6.62748C-0.283819 2.90809 2.90811 -0.283786 6.62749 0.020058C7.80617 0.116363 8.97295 0.180214 10.0005 0.180214C11.0281 0.180206 12.195 0.116356 13.3736 0.020058ZM7.94878 9.66459C6.85422 8.50295 5.02745 8.44264 3.85795 9.52885L3.08549 10.2456C2.79663 10.5141 2.77998 10.9664 3.04838 11.2554C3.31687 11.5442 3.76918 11.5609 4.05815 11.2925L4.82963 10.5757C5.42401 10.0237 6.35249 10.0546 6.90874 10.6451L9.43022 13.3208C10.1915 14.1289 11.4377 14.2383 12.3277 13.5747C12.9115 13.1392 13.7247 13.1881 14.2515 13.691L16.4117 15.7544C16.6968 16.0269 17.1489 16.017 17.4214 15.732C17.6939 15.4467 17.6832 14.9947 17.398 14.7222L15.2388 12.6587C14.208 11.6739 12.6169 11.5769 11.4742 12.4292C11.1659 12.6592 10.734 12.6213 10.4703 12.3413L7.94878 9.66459ZM14.0484 3.8101C12.9965 3.8101 12.1432 4.66251 12.1431 5.71439C12.1431 6.76636 12.9964 7.61967 14.0484 7.61967C15.1001 7.61942 15.9527 6.7662 15.9527 5.71439C15.9526 4.66266 15.1001 3.81035 14.0484 3.8101Z" fill="#464A4D"/>
</svg>
