<svg width="24" height="24" viewBox="0 0 24 24" fill="none" xmlns="http://www.w3.org/2000/svg">
<path d="M12 1C16.769 1.00013 20.6355 4.86676 20.6357 9.63574V9.85938C20.6356 13.0976 18.8525 15.9182 16.2148 17.3955C15.2969 17.9096 14.8365 19.21 14.5342 20.2178C14.2169 21.2752 13.2437 22 12.1396 22H11.8594C10.7556 21.9997 9.78201 21.275 9.46484 20.2178C9.16262 19.21 8.70289 17.9097 7.78516 17.3955C5.14778 15.9182 3.36443 13.0975 3.36426 9.85938V9.63574C3.36448 4.86678 7.23102 1.00016 12 1ZM12 7.06152C10.5357 7.06156 9.34887 8.24868 9.34863 9.71289V9.78223C9.3488 11.2465 10.5357 12.4336 12 12.4336C13.4643 12.4336 14.6512 11.2465 14.6514 9.78223V9.71289C14.6511 8.24865 13.4643 7.06152 12 7.06152Z" fill="#2750E0"/>
</svg>
