<svg width="18" height="21" viewBox="0 0 18 21" fill="none" xmlns="http://www.w3.org/2000/svg">
<path d="M9 0C13.769 0.000128845 17.6355 3.86676 17.6357 8.63574V8.85938C17.6356 12.0976 15.8525 14.9182 13.2148 16.3955C12.2969 16.9096 11.8365 18.21 11.5342 19.2178C11.2169 20.2752 10.2437 21 9.13965 21H8.85938C7.75564 20.9997 6.78201 20.275 6.46484 19.2178C6.16262 18.21 5.70289 16.9097 4.78516 16.3955C2.14778 14.9182 0.364434 12.0975 0.364258 8.85938V8.63574C0.36448 3.86678 4.23102 0.000163268 9 0ZM9 6.06152C7.53574 6.06156 6.34887 7.24868 6.34863 8.71289V8.78223C6.3488 10.2465 7.5357 11.4336 9 11.4336C10.4643 11.4336 11.6512 10.2465 11.6514 8.78223V8.71289C11.6511 7.24865 10.4643 6.06152 9 6.06152Z" fill="#464A4D"/>
</svg>
