<svg width="248" height="59" viewBox="0 0 248 59" fill="none" xmlns="http://www.w3.org/2000/svg">
<path d="M51.8428 6.61643C55.0776 6.61643 57.4318 9.7049 56.5931 12.8476L45.3493 54.7496C44.7263 57.0735 42.6297 58.6869 40.2335 58.6869C37.6038 58.6869 35.3754 56.7484 34.992 54.1355L33.1769 32.456C33.0032 30.3549 30.008 30.1984 29.6067 32.2634L25.8447 51.8779C25.084 55.8272 21.6455 58.6809 17.644 58.6809C13.8221 58.6809 10.4915 56.0741 9.55102 52.3535L0.21807 15.3581C-0.902123 10.921 2.43449 6.61041 6.99314 6.61041C9.72474 6.61041 12.2047 8.20582 13.3429 10.6983L17.0809 22.9919C17.3744 23.9492 18.7342 23.9251 18.9858 22.9498L21.5437 13.1185C23.2449 9.16306 27.1207 6.60439 31.4038 6.60439C36.5615 6.60439 40.9883 10.2889 41.9587 15.3761L42.5518 21.0895C42.6656 22.2033 44.2411 22.3056 44.4987 21.2219L47.2003 9.92765C47.8892 7.94092 49.7522 6.61041 51.8428 6.61041V6.61643ZM104.648 6.61643C99.8853 6.61643 96.2013 10.8127 96.7943 15.5628L100.844 47.8683C101.617 54.0512 106.852 58.6869 113.052 58.6869H130.178C134.132 58.6869 137.331 55.466 137.331 51.4986C137.331 47.0073 133.275 43.6118 128.879 44.4306L117.922 46.4595C115.131 46.9772 112.561 44.8219 112.561 41.9743V14.5694C112.561 10.1745 109.021 6.61643 104.648 6.61643ZM168.409 8.33225L157.836 21.5049C156.578 23.0702 154.056 22.1792 154.056 20.1623V13.4074C154.056 9.65674 151.031 6.61041 147.293 6.61041C143.561 6.61041 140.53 9.65071 140.53 13.4074V51.8899C140.53 55.6406 143.555 58.6869 147.293 58.6869C151.025 58.6869 154.056 55.6466 154.056 51.8899V43.2506C154.056 41.1736 156.704 40.3187 157.908 42.0044L168.391 56.7183C169.271 57.9524 170.685 58.6809 172.195 58.6809C175.801 58.6809 178.047 54.7556 176.238 51.625L165.551 33.1243C165 32.167 165.024 30.987 165.605 30.0479L175.867 13.6844C177.796 10.608 175.597 6.60439 171.979 6.60439C170.589 6.60439 169.277 7.23653 168.403 8.3202L168.409 8.33225ZM188.896 23.2328L185.505 53.0338C185.158 56.0741 188.381 58.6809 192.472 58.6809C196.426 58.6809 199.594 56.2366 199.463 53.2927L198.097 23.4013C198.013 21.5531 195.976 20.0841 193.49 20.0841C191.094 20.0841 189.099 21.4507 188.896 23.2267V23.2328ZM219.584 38.6992C219.584 35.8274 221.903 33.4976 224.76 33.4976H241.641C243.57 33.4976 245.133 31.9262 245.133 29.9877C245.133 28.0491 243.57 26.4778 241.641 26.4778H223.873C221.501 26.4778 219.584 24.5452 219.584 22.1671C219.584 19.7831 221.507 17.8565 223.873 17.8565H240.778C243.863 17.8565 246.367 15.34 246.367 12.2395C246.367 9.13898 243.863 6.62245 240.778 6.62245H218.027C212.857 6.62245 208.592 10.6862 208.322 15.8758L206.609 48.4101C206.316 54.0031 210.743 58.693 216.314 58.693H239.664C243.725 58.693 247.02 55.3817 247.02 51.2999C247.02 47.2181 243.725 43.9068 239.664 43.9068H224.76C221.903 43.9068 219.584 41.5769 219.584 38.7052V38.6992ZM73.6297 6.61643C77.6791 6.61643 81.2793 9.21123 82.5792 13.0643L95.8299 52.3715C96.8722 55.472 94.5779 58.6869 91.3251 58.6869C89.2884 58.6869 87.4793 57.3865 86.8204 55.448L84.568 48.8014C83.6755 46.1705 80.9019 44.6955 78.2362 45.43L72.4615 47.0254C70.6045 47.5371 69.1788 49.0362 68.7535 50.9266L68.4241 52.3776C67.5914 56.0681 64.3267 58.6869 60.5587 58.6869C55.0357 58.6869 51.1479 53.2385 52.9211 47.9766L64.6921 13.0643C65.992 9.21123 69.5922 6.61643 73.6416 6.61643H73.6297ZM76.3912 30.7101C77.3916 30.3489 77.9128 29.2471 77.5713 28.2357L76.9543 24.6355C76.6847 23.0822 74.4444 23.1425 74.2646 24.7078L73.8333 28.4344C73.4919 29.9455 74.9475 31.2339 76.3972 30.7101H76.3912ZM202.344 7.86265C202.344 3.52194 198.84 0 194.521 0C190.202 0 186.697 3.52194 186.697 7.86265C186.697 12.2034 190.202 15.7253 194.521 15.7253C198.84 15.7253 202.344 12.2034 202.344 7.86265Z" fill="#2750E0"/>
</svg>
