<svg width="252" height="65" viewBox="0 0 252 65" fill="none" xmlns="http://www.w3.org/2000/svg">
<path d="M62.9145 20.6625C63.961 17.6904 65.0266 14.1733 65.2755 12.8424C66.3411 7.18018 64.5321 2.76951 60.3271 0.782807C59.137 0.221967 58.3873 0.0793808 56.2624 0.0128405C54.6449 -0.0378569 53.2187 0.0635379 52.4977 0.28217C49.6454 1.14719 47.645 2.76951 46.2731 5.33607C44.6843 8.3082 44.4865 9.77209 44.2855 20.1841C44.1068 29.4458 44.0845 29.693 43.4751 30.2507C42.7541 30.9129 41.5449 30.7925 41.2067 30.0257C41.0918 29.769 41.0185 26.5688 41.0408 22.9122C41.0982 13.7518 40.559 11.1853 38.1183 9.04015C36.9666 8.0262 35.3554 7.36396 34.0473 7.36713C32.803 7.3703 30.4006 8.42544 29.4403 9.39186C26.4157 12.4274 24.4281 18.8247 23.9974 26.9015C23.6975 32.5574 23.1678 33.9452 21.311 33.9452C19.9646 33.9452 19.5148 32.6176 19.7349 29.2938C19.9072 26.6923 20.2741 24.8419 21.7959 18.9293C22.8265 14.921 23.0881 10.2094 22.4021 8.03887C21.0462 3.76128 18.2769 1.30562 13.8071 0.427925C9.0501 -0.509976 3.75712 1.62565 1.76947 5.2822C-0.393661 9.25561 -0.5851 16.3057 1.25898 23.9832C3.04883 31.423 3.00736 30.577 2.38203 46.8414C2.23527 50.6342 2.29589 52.1329 2.66279 54.0658C3.73798 59.7059 5.80538 62.491 10.071 64.0373C11.3663 64.5063 12.2948 64.6235 14.8663 64.633C17.8845 64.6489 18.1556 64.6013 19.9327 63.7997C23.1104 62.3611 25.3757 59.9308 26.9677 56.2553C27.8323 54.2527 28.6108 50.5296 28.6203 48.337C28.6299 46.2394 29.118 43.3623 29.6189 42.4751C30.1294 41.5689 30.8504 41.2678 31.4407 41.7178C31.8969 42.0632 31.8937 42.2121 31.2588 49.8991C30.9366 53.8218 31.3195 57.0759 32.3372 59.0721C35.3139 64.9087 43.6857 66.6007 49.6422 62.5734C51.6459 61.2173 52.6891 60.0259 53.9845 57.6146C55.8604 54.1196 56.2688 52.3294 58.4224 38.207C59.4529 31.4484 60.3494 27.9439 62.9177 20.6689L62.9145 20.6625Z" fill="#2750E0"/>
<path d="M208.766 2.13557C207.008 0.906162 204.335 0.342154 202.133 0.741396C198.506 1.39729 195.669 3.95434 194.25 7.85487C192.779 11.8948 192.377 19.3061 193.254 26.1852C193.895 31.2137 193.678 37.2087 192.648 42.9818C191.991 46.6574 191.889 47.9058 192.01 50.6878C192.405 59.8134 195.759 64.3666 202.344 64.712C205.282 64.8673 207.286 64.1829 209.092 62.4084C212.93 58.641 213.9 52.8773 212.509 42.1041C211.743 36.1725 211.736 31.8949 212.486 25.9697C214.397 10.8524 213.561 5.48794 208.766 2.13241V2.13557Z" fill="#2750E0"/>
<path d="M179.784 27.1518C184.691 23.1911 187.677 19.4933 189.215 15.4755C189.914 13.6473 190.029 12.9438 190.032 10.428C190.038 5.51984 188.724 2.95012 185.412 1.39434C183.836 0.652894 183.479 0.595859 180.649 0.595859C177.819 0.595859 177.445 0.665568 176.141 1.30562C174.686 2.01855 172.851 3.60602 171.703 5.14912C170.576 6.6637 169.303 10.0414 168.423 13.8469C167.351 18.492 166.489 20.3964 165.465 20.3964C164.537 20.3964 164.467 20.0035 164.897 17.2056C165.376 14.094 165.357 9.72456 164.853 7.5414C164.132 4.41401 162.431 2.24986 159.726 1.00778C158.134 0.279 157.687 0.196617 155.323 0.202954C153.208 0.209291 152.353 0.336035 150.977 0.855683C147.985 1.98687 145.914 4.35697 144.826 7.90262C144.373 9.38552 144.3 10.6149 144.313 16.5402C144.329 22.6524 144.427 24.1099 145.18 29.1638C146.023 34.8166 146.029 34.994 145.959 45.9067C145.889 56.4295 145.914 57.0221 146.489 58.7775C147.005 60.3554 147.347 60.8497 148.878 62.2534C151.013 64.2084 152.534 64.7788 155.636 64.7788C160.983 64.7788 164.448 61.8066 165.341 56.4517C165.733 54.107 165.373 49.6868 164.46 45.6405C163.905 43.1848 164.01 42.1075 164.814 41.9649C166.34 41.6956 167.443 44.4713 168.027 50.048C168.503 54.6076 168.748 55.7515 169.779 58.3085C171.668 62.9822 175.569 65.4093 180.445 64.9435C184.235 64.5791 187.46 62.3738 188.762 59.2496C189.614 57.209 189.828 53.1342 189.221 50.5106C187.99 45.1937 185.728 42.1234 179.105 36.7811C177.867 35.783 176.597 34.5029 176.281 33.9357C175.04 31.7019 175.678 30.4661 179.787 27.1518H179.784Z" fill="#2750E0"/>
<path d="M237.493 20.6467C238.906 19.9021 239.123 19.8672 242.572 19.8672C245.616 19.8672 246.362 19.7785 247.409 19.3159C248.953 18.6315 250.271 17.269 251.247 15.3583C251.92 14.037 252 13.5649 252 10.8272C252 8.08958 251.933 7.64598 251.196 6.26764C249.751 3.568 247.045 1.90133 242.834 1.10918C240.348 0.643398 231.482 0.383574 229.491 0.716275C223.126 1.78726 219.333 5.09526 217.661 11.0364C216.934 13.6251 216.461 21.6131 216.71 27.1708C216.809 29.3635 216.736 33.5492 216.548 36.4738C216.028 44.5917 216.114 51.1158 216.78 54.0341C218.092 59.7724 221.001 62.6558 226.955 64.1134C229.724 64.7914 237.094 64.9657 240.208 64.4239C246.595 63.318 250.628 59.4967 250.931 54.2717C251.167 50.1716 249.802 47.0505 247.103 45.5201C245.846 44.8072 245.421 44.7121 243.481 44.7121C242.275 44.7121 240.498 44.88 239.535 45.086C237.445 45.5328 236.437 45.349 235.314 44.3192C233.731 42.8648 234.465 40.7862 236.922 39.7723C237.94 39.3509 238.584 39.3065 241.593 39.4459C245.788 39.6392 246.806 39.3952 248.557 37.7887C250.188 36.2932 250.819 34.4015 250.638 31.5783C250.446 28.6157 249.24 26.7937 246.646 25.5485C245.801 25.1429 244.93 25.0605 241.385 25.0542C237.525 25.0479 237.062 24.994 236.319 24.487C234.74 23.4065 235.218 21.8476 237.499 20.6467H237.493Z" fill="#2750E0"/>
<path d="M139.15 43.8755C137.775 43.2291 137.214 43.1404 133.392 42.982C129.729 42.8299 128.963 42.719 127.745 42.1645C125.384 41.0903 124.455 39.2937 124.455 35.7766C124.455 32.7474 125.122 29.8323 127.065 24.3855C130.884 13.6947 131.229 7.80113 128.271 3.85307C127.202 2.42721 125.186 1.13442 123.185 0.586257C121.233 0.0539339 118.001 0.101463 116.154 0.684483C112.341 1.89488 110.028 5.08565 109.087 10.4311C108.812 11.9868 108.787 14.452 108.978 20.6244C109.259 29.6802 109.297 38.7646 109.096 47.7665C108.978 53.0137 109.029 53.9738 109.502 55.6056C110.991 60.7451 113.994 63.3084 119.784 64.3858C121.695 64.7406 123.246 64.8072 127.304 64.7121C133.041 64.5759 135.185 64.1323 137.925 62.5258C142.469 59.8579 144.613 53.5936 142.848 48.1372C142.22 46.1949 140.934 44.712 139.15 43.8723V43.8755Z" fill="#2750E0"/>
<path d="M104.189 19.6071C103.239 15.3295 102.224 12.4461 100.559 9.30923C97.4129 3.37763 93.4504 0.80474 86.7951 0.373812C85.6114 0.297766 83.9907 0.329452 83.1931 0.446689C78.0756 1.19764 74.4034 3.26039 71.7904 6.85357C70.2749 8.9385 69.64 10.5418 68.1118 16.1914C67.4099 18.777 66.0476 23.1433 65.0841 25.8936C62.1584 34.2365 61.0481 38.9735 60.4419 45.6878C60.3973 46.1884 60.3622 46.6827 60.3335 47.1643C60.2665 48.3937 61.3703 49.3538 62.5891 49.132C65.0553 48.6821 67.9874 48.343 71.2831 48.343C74.0971 48.343 76.6463 48.5902 78.8668 48.9419C80.0281 49.1257 81.0714 48.2385 81.0746 47.0693C81.081 45.6656 81.3203 44.6897 81.7893 44.1066C83.142 42.44 85.2095 42.7885 85.9018 44.7974C86.1187 45.4184 86.1921 45.8335 86.0709 46.7968C85.9146 48.0325 86.9993 49.075 88.2372 48.888C90.3748 48.5649 92.8059 48.343 95.4763 48.343C98.6477 48.343 101.478 48.6567 103.883 49.0782C105.035 49.281 106.097 48.4254 106.126 47.2657C106.126 47.2562 106.126 47.2499 106.126 47.2404C106.34 36.5147 105.603 25.9855 104.186 19.604L104.189 19.6071Z" fill="#2750E0"/>
<path d="M105.81 54.3002C105.836 54.0562 105.858 53.8059 105.88 53.5397C105.957 52.5828 105.293 51.7209 104.346 51.534C101.911 51.0524 98.9444 50.6753 95.5657 50.6753C92.0019 50.6753 88.8944 51.0935 86.3867 51.6132C85.6083 51.7748 85.0052 52.3958 84.8936 53.1785C84.6639 54.7691 84.6288 57.1424 85.9369 59.3541C88.1 63.0074 93.0962 64.5062 98.804 64.4903C107.98 64.465 111.722 59.3097 106.649 56.0587C106.059 55.6785 105.74 54.9972 105.813 54.3002H105.81Z" fill="#2750E0"/>
<path d="M80.9917 54.0846C81.0172 53.8406 81.0395 53.5903 81.0619 53.3241C81.1384 52.3672 80.4748 51.5053 79.5273 51.3184C77.093 50.8368 74.1258 50.4597 70.7471 50.4597C67.2632 50.4597 64.2195 50.859 61.7405 51.3628C60.8344 51.5465 60.1931 52.3545 60.225 53.2734C60.2888 55.1049 60.7929 57.8425 62.0595 59.9782C63.2528 62.6208 68.2777 64.2874 73.9855 64.2716C83.1612 64.2462 86.9036 59.0909 81.8308 55.84C81.2405 55.4597 80.9215 54.7785 80.9949 54.0814L80.9917 54.0846Z" fill="#2750E0"/>
<path d="M95.9708 18.3726C95.9708 23.5336 91.9671 26.9012 86.2399 26.9012C80.5126 26.9012 76.9875 23.5368 76.9875 18.3726C76.9875 13.2085 80.5126 7.7312 86.2399 7.7312C91.9671 7.7312 95.9708 13.2117 95.9708 18.3726Z" fill="white"/>
<path d="M86.7318 18.3459C87.238 18.3459 87.6483 17.6765 87.6483 16.8507C87.6483 16.0249 87.238 15.3555 86.7318 15.3555C86.2257 15.3555 85.8154 16.0249 85.8154 16.8507C85.8154 17.6765 86.2257 18.3459 86.7318 18.3459Z" fill="#2750E0"/>
<path d="M91.8639 18.3459C92.3701 18.3459 92.7803 17.6765 92.7803 16.8507C92.7803 16.0249 92.3701 15.3555 91.8639 15.3555C91.3578 15.3555 90.9475 16.0249 90.9475 16.8507C90.9475 17.6765 91.3578 18.3459 91.8639 18.3459Z" fill="#2750E0"/>
</svg>
