<svg width="252" height="66" viewBox="0 0 252 66" fill="none" xmlns="http://www.w3.org/2000/svg">
<path d="M62.9145 20.9804C63.961 17.9625 65.0266 14.3913 65.2755 13.04C66.3411 7.29065 64.5321 2.81212 60.3271 0.79485C59.137 0.225382 58.3873 0.0806021 56.2624 0.0130381C54.6449 -0.0384393 53.2187 0.0645154 52.4977 0.286512C49.6454 1.16484 47.645 2.81212 46.2731 5.41816C44.6843 8.43602 44.4865 9.92243 44.2855 20.4946C44.1068 29.8989 44.0845 30.1498 43.4751 30.7161C42.7541 31.3885 41.5449 31.2662 41.2067 30.4876C41.0918 30.227 41.0185 26.9775 41.0408 23.2647C41.0982 13.9634 40.559 11.3574 38.1183 9.17923C36.9666 8.14968 35.3554 7.47725 34.0473 7.48047C32.803 7.48369 30.4006 8.55506 29.4403 9.53635C26.4157 12.6186 24.4281 19.1144 23.9974 27.3153C23.6975 33.0583 23.1678 34.4675 21.311 34.4675C19.9646 34.4675 19.5148 33.1194 19.7349 29.7444C19.9072 27.103 20.2741 25.2241 21.7959 19.2205C22.8265 15.1506 23.0881 10.3664 22.4021 8.16255C21.0462 3.81915 18.2769 1.32571 13.8071 0.434509C9.0501 -0.517822 3.75712 1.65066 1.76947 5.36347C-0.393661 9.398 -0.5851 16.5566 1.25898 24.3522C3.04883 31.9065 3.00736 31.0475 2.38203 47.562C2.23527 51.4132 2.29589 52.935 2.66279 54.8976C3.73798 60.6244 5.80538 63.4524 10.071 65.0225C11.3663 65.4987 12.2948 65.6177 14.8663 65.6274C17.8845 65.6435 18.1556 65.5952 19.9327 64.7812C23.1104 63.3205 25.3757 60.8528 26.9677 57.1207C27.8323 55.0874 28.6108 51.307 28.6203 49.0806C28.6299 46.9507 29.118 44.0294 29.6189 43.1285C30.1294 42.2084 30.8504 41.9027 31.4407 42.3596C31.8969 42.7103 31.8937 42.8615 31.2588 50.6668C30.9366 54.6498 31.3195 57.954 32.3372 59.9809C35.3139 65.9073 43.6857 67.6253 49.6422 63.5361C51.6459 62.1591 52.6891 60.9494 53.9845 58.501C55.8604 54.9522 56.2688 53.1345 58.4224 38.7948C59.4529 31.9322 60.3494 28.3738 62.9177 20.9868L62.9145 20.9804Z" fill="white"/>
<path d="M208.766 2.1685C207.008 0.920171 204.335 0.347485 202.133 0.752869C198.506 1.41886 195.669 4.01525 194.25 7.97579C192.779 12.0779 192.377 19.6032 193.254 26.5881C193.895 31.694 193.678 37.7812 192.648 43.6432C191.991 47.3753 191.889 48.6429 192.01 51.4677C192.405 60.7336 195.759 65.357 202.344 65.7076C205.282 65.8653 207.286 65.1703 209.092 63.3686C212.93 59.5432 213.9 53.6909 212.509 42.752C211.743 36.7291 211.736 32.3857 212.486 26.3693C214.397 11.0194 213.561 5.57244 208.766 2.16528V2.1685Z" fill="white"/>
<path d="M179.784 27.5693C184.691 23.5477 187.677 19.793 189.215 15.7134C189.914 13.857 190.029 13.1428 190.032 10.5882C190.038 5.60458 188.724 2.99532 185.412 1.41561C183.836 0.66275 183.479 0.604838 180.649 0.604838C177.819 0.604838 177.445 0.67562 176.141 1.32552C174.686 2.04942 172.851 3.66131 171.703 5.22815C170.576 6.76603 169.303 10.1957 168.423 14.0597C167.351 18.7763 166.489 20.71 165.465 20.71C164.537 20.71 164.467 20.311 164.897 17.4701C165.376 14.3107 165.357 9.87398 164.853 7.65724C164.132 4.48173 162.431 2.28429 159.726 1.02309C158.134 0.283105 157.687 0.199454 155.323 0.205889C153.208 0.212324 152.353 0.341017 150.977 0.86866C147.985 2.01725 145.914 4.42381 144.826 8.02401C144.373 9.52972 144.3 10.778 144.313 16.7945C144.329 23.0007 144.427 24.4807 145.18 29.6123C146.023 35.3521 146.029 35.5322 145.959 46.6127C145.889 57.2975 145.914 57.8991 146.489 59.6815C147.005 61.2838 147.347 61.7857 148.878 63.211C151.013 65.196 152.534 65.7752 155.636 65.7752C160.983 65.7752 164.448 62.7573 165.341 57.32C165.733 54.9392 165.373 50.451 164.46 46.3425C163.905 43.849 164.01 42.7551 164.814 42.6104C166.34 42.3369 167.443 45.1553 168.027 50.8178C168.503 55.4475 168.748 56.609 169.779 59.2054C171.668 63.9509 175.569 66.4154 180.445 65.9425C184.235 65.5725 187.46 63.3332 188.762 60.1609C189.614 58.089 189.828 53.9515 189.221 51.2875C187.99 45.8888 185.728 42.7712 179.105 37.3468C177.867 36.3333 176.597 35.0335 176.281 34.4576C175.04 32.1894 175.678 30.9347 179.787 27.5693H179.784Z" fill="white"/>
<path d="M237.493 20.9642C238.906 20.2081 239.123 20.1727 242.572 20.1727C245.616 20.1727 246.362 20.0826 247.409 19.6129C248.953 18.9179 250.271 17.5345 251.247 15.5944C251.92 14.2528 252 13.7734 252 10.9936C252 8.21387 251.933 7.76344 251.196 6.3639C249.751 3.62273 247.045 1.93041 242.834 1.12608C240.348 0.653131 231.482 0.38931 229.491 0.72713C223.126 1.81459 219.333 5.17349 217.661 11.206C216.934 13.8346 216.462 21.9455 216.71 27.5887C216.809 29.8151 216.736 34.0652 216.548 37.0348C216.028 45.2776 216.114 51.9021 216.781 54.8652C218.092 60.6918 221.002 63.6196 226.955 65.0996C229.724 65.7881 237.094 65.965 240.208 65.4149C246.595 64.292 250.628 60.4119 250.931 55.1065C251.167 50.9433 249.802 47.7742 247.103 46.2202C245.846 45.4963 245.421 45.3998 243.481 45.3998C242.275 45.3998 240.498 45.5703 239.535 45.7795C237.445 46.2331 236.437 46.0465 235.314 45.0009C233.731 43.5241 234.465 41.4135 236.922 40.384C237.94 39.9561 238.584 39.9111 241.593 40.0526C245.788 40.2489 246.806 40.0011 248.557 38.3699C250.188 36.8514 250.82 34.9306 250.638 32.064C250.446 29.0558 249.24 27.2058 246.646 25.9414C245.801 25.5296 244.93 25.4459 241.385 25.4395C237.525 25.433 237.062 25.3783 236.319 24.8636C234.74 23.7665 235.218 22.1835 237.499 20.9642H237.493Z" fill="white"/>
<path d="M139.15 44.5506C137.775 43.8943 137.214 43.8042 133.392 43.6433C129.729 43.4889 128.963 43.3763 127.745 42.8132C125.384 41.7226 124.455 39.8983 124.455 36.3271C124.455 33.2513 125.122 30.2914 127.065 24.7608C130.884 13.9055 131.228 7.92125 128.271 3.91245C127.202 2.46465 125.186 1.15198 123.185 0.595381C121.233 0.0548689 118.001 0.103129 116.154 0.695118C112.341 1.92414 110.028 5.164 109.087 10.5916C108.812 12.1714 108.787 14.6744 108.978 20.9418C109.259 30.1369 109.297 39.361 109.096 48.5015C108.978 53.8294 109.029 54.8043 109.501 56.4612C110.991 61.6797 113.994 64.2825 119.784 65.3764C121.695 65.7368 123.246 65.8043 127.304 65.7078C133.041 65.5695 135.185 65.119 137.925 63.4878C142.468 60.7788 144.612 54.4182 142.848 48.8779C142.22 46.9057 140.934 45.4 139.15 44.5474V44.5506Z" fill="white"/>
<path d="M104.19 19.9088C103.239 15.5654 102.224 12.6376 100.559 9.45246C97.413 3.42961 93.4504 0.817131 86.7952 0.379574C85.6115 0.302358 83.9908 0.334531 83.1932 0.453573C78.0757 1.21608 74.4034 3.31057 71.7905 6.95902C70.275 9.07603 69.6401 10.704 68.1119 16.4405C67.41 19.0659 66.0476 23.4993 65.0841 26.292C62.1585 34.7632 61.0482 39.5731 60.442 46.3907C60.3973 46.899 60.3622 47.4009 60.3335 47.89C60.2665 49.1383 61.3704 50.1131 62.5892 49.8879C65.0554 49.4311 67.9874 49.0868 71.2832 49.0868C74.0971 49.0868 76.6463 49.3378 78.8669 49.6949C80.0282 49.8815 81.0715 48.9806 81.0747 47.7934C81.0811 46.3682 81.3203 45.3772 81.7893 44.7852C83.1421 43.0929 85.2095 43.4468 85.9018 45.4866C86.1188 46.1172 86.1922 46.5387 86.0709 47.5167C85.9146 48.7715 86.9993 49.83 88.2372 49.6402C90.3748 49.312 92.806 49.0868 95.4764 49.0868C98.6477 49.0868 101.478 49.4053 103.883 49.8332C105.035 50.0391 106.097 49.1705 106.126 47.9929C106.126 47.9833 106.126 47.9768 106.126 47.9672C106.34 37.0765 105.603 26.3853 104.186 19.9056L104.19 19.9088Z" fill="white"/>
<path d="M105.81 55.1355C105.836 54.8877 105.858 54.6336 105.88 54.3633C105.957 53.3917 105.293 52.5166 104.346 52.3267C101.912 51.8377 98.9444 51.4548 95.5657 51.4548C92.002 51.4548 88.8945 51.8795 86.3868 52.4072C85.6083 52.5713 85.0053 53.2018 84.8936 53.9965C84.6639 55.6116 84.6288 58.0214 85.9369 60.2671C88.1 63.9767 93.0963 65.4985 98.804 65.4824C107.98 65.4567 111.722 60.2221 106.649 56.9211C106.059 56.535 105.74 55.8433 105.813 55.1355H105.81Z" fill="white"/>
<path d="M80.9917 54.9167C81.0172 54.669 81.0395 54.4148 81.0619 54.1446C81.1384 53.1729 80.4748 52.2978 79.5273 52.108C77.093 51.6189 74.1258 51.2361 70.7471 51.2361C67.2632 51.2361 64.2195 51.6415 61.7405 52.153C60.8344 52.3396 60.1931 53.16 60.225 54.0931C60.2888 55.9527 60.7929 58.7325 62.0595 60.901C63.2528 63.5842 68.2777 65.2765 73.9855 65.2604C83.1612 65.2347 86.9036 60.0001 81.8308 56.6991C81.2405 56.313 80.9215 55.6213 80.9949 54.9135L80.9917 54.9167Z" fill="white"/>
<path d="M95.9707 18.6553C95.9707 23.8956 91.9671 27.315 86.2398 27.315C80.5125 27.315 76.9875 23.8989 76.9875 18.6553C76.9875 13.4116 80.5125 7.8501 86.2398 7.8501C91.9671 7.8501 95.9707 13.4149 95.9707 18.6553Z" fill="#2750E0"/>
<path d="M86.7318 18.6282C87.238 18.6282 87.6483 17.9485 87.6483 17.11C87.6483 16.2715 87.238 15.5918 86.7318 15.5918C86.2257 15.5918 85.8154 16.2715 85.8154 17.11C85.8154 17.9485 86.2257 18.6282 86.7318 18.6282Z" fill="white"/>
<path d="M91.8639 18.6282C92.37 18.6282 92.7803 17.9485 92.7803 17.11C92.7803 16.2715 92.37 15.5918 91.8639 15.5918C91.3577 15.5918 90.9474 16.2715 90.9474 17.11C90.9474 17.9485 91.3577 18.6282 91.8639 18.6282Z" fill="white"/>
</svg>
