<svg width="17" height="20" viewBox="0 0 17 20" fill="none" xmlns="http://www.w3.org/2000/svg">
<path d="M8.29684 0C9.53941 8.31223e-05 10.5468 1.00741 10.5468 2.25C10.5468 2.46655 10.663 2.67339 10.8632 2.75586C13.3181 3.76594 15.0468 6.18086 15.0468 9V12.1289C15.0468 12.783 15.7093 13.0375 16.1718 13.5C16.5067 13.8349 16.6419 14.369 16.5781 14.8652C16.4939 15.5187 15.8753 15.9445 15.2168 15.9639C14.4622 15.986 13.418 15.839 12.2802 15.6543L12.2812 15.6553C12.2565 15.6513 12.2318 15.6466 12.207 15.6426C10.5597 15.3737 8.72639 15.0309 7.29684 15L6.64157 14.998C5.74918 14.9984 4.86024 15.1203 4.01071 15.3936C2.53734 15.8674 1.09856 16.33 0.421843 15.75C-0.140653 15.1875 -0.140576 14.0625 0.421843 13.5C0.884459 13.0376 1.54684 12.783 1.54684 12.1289V9C1.54684 6.18111 3.27499 3.76612 5.72946 2.75586C5.92958 2.67336 6.04684 2.46648 6.04684 2.25C6.04684 1.00736 7.0542 0 8.29684 0Z" fill="#464A4D"/>
<path d="M11.3104 16.509C10.0274 16.2944 8.76753 16.0842 7.71375 16.0187C7.54269 16.0081 7.44662 16.0038 7.27527 16.0002C7.20777 15.9987 6.61412 16.0001 6.29675 16.0002C5.88396 16.0003 5.44196 16.0702 5.08013 16.1471C4.62541 16.2439 4.32758 16.6798 4.45816 17.126C4.9443 18.787 6.47855 20.0002 8.29675 20.0002C9.95059 20.0002 11.3692 18.9963 11.9779 17.5648C12.1815 17.0862 11.8233 16.5948 11.3104 16.509Z" fill="#464A4D"/>
</svg>
