<svg width="111" height="110" viewBox="0 0 111 110" fill="none" xmlns="http://www.w3.org/2000/svg">
<rect x="0.5" width="110" height="110" rx="55" fill="#A9B9F3"/>
<path d="M78.8585 39.034C77.7262 33.7002 76.518 30.1048 74.5346 26.1933C70.7883 18.797 66.0694 15.5888 58.1436 15.0515C56.734 14.9567 54.8039 14.9962 53.854 15.1424C47.7596 16.0787 43.3864 18.6508 40.2746 23.1313C38.4699 25.731 37.7138 27.7302 35.8938 34.7749C35.0579 37.9989 33.4355 43.4433 32.2881 46.8728C28.804 57.2758 27.4817 63.1825 26.7598 71.5547C26.7066 72.1789 26.6648 72.7953 26.6307 73.3958C26.5509 74.9288 27.8655 76.126 29.3169 75.8494C32.2539 75.2884 35.7456 74.8656 39.6705 74.8656C43.0216 74.8656 46.0574 75.1738 48.7019 75.6123C50.0849 75.8415 51.3274 74.7352 51.3312 73.2773C51.3388 71.527 51.6237 70.3101 52.1822 69.5831C53.7932 67.5049 56.2553 67.9395 57.0798 70.4444C57.3382 71.2188 57.4256 71.7364 57.2812 72.9375C57.095 74.4784 58.3868 75.7783 59.861 75.5452C62.4067 75.1422 65.3019 74.8656 68.4821 74.8656C72.2588 74.8656 75.6289 75.2567 78.4937 75.7822C79.8653 76.0351 81.1306 74.9683 81.1648 73.5223C81.1648 73.5104 81.1648 73.5025 81.1648 73.4906C81.4193 60.1165 80.5416 46.9874 78.8547 39.0301L78.8585 39.034Z" fill="#2750E0"/>
<path d="M80.7885 82.2934C80.8189 81.9892 80.8455 81.677 80.8721 81.3451C80.9633 80.1519 80.173 79.0773 79.0445 78.8442C76.1455 78.2436 72.612 77.7734 68.5884 77.7734C64.3443 77.7734 60.6436 78.295 57.6572 78.9429C56.7301 79.1444 56.012 79.9188 55.879 80.8947C55.6055 82.8781 55.5637 85.8374 57.1215 88.5952C59.6975 93.1507 65.6475 95.0195 72.4448 94.9998C83.3721 94.9682 87.829 88.5399 81.7878 84.4862C81.0849 84.0121 80.7049 83.1626 80.7923 82.2934H80.7885Z" fill="#2750E0"/>
<path d="M51.2322 82.0248C51.2626 81.7206 51.2892 81.4085 51.3158 81.0766C51.407 79.8834 50.6167 78.8087 49.4883 78.5756C46.5893 77.975 43.0557 77.5049 39.0321 77.5049C34.883 77.5049 31.2583 78.0027 28.3061 78.6309C27.2271 78.8601 26.4634 79.8676 26.5014 81.0134C26.5773 83.297 27.1777 86.7107 28.6861 89.3737C30.1071 92.6688 36.0913 94.747 42.8886 94.7273C53.8159 94.6957 58.2727 88.2674 52.2315 84.2137C51.5286 83.7396 51.1487 82.8901 51.236 82.0209L51.2322 82.0248Z" fill="#2750E0"/>
<path d="M69.0706 37.4947C69.0706 43.9301 64.3027 48.1291 57.4821 48.1291C50.6616 48.1291 46.4636 43.934 46.4636 37.4947C46.4636 31.0553 50.6616 24.2256 57.4821 24.2256C64.3027 24.2256 69.0706 31.0593 69.0706 37.4947Z" fill="white"/>
<path d="M58.0682 37.4613C58.6709 37.4613 59.1595 36.6265 59.1595 35.5968C59.1595 34.5671 58.6709 33.7324 58.0682 33.7324C57.4654 33.7324 56.9768 34.5671 56.9768 35.5968C56.9768 36.6265 57.4654 37.4613 58.0682 37.4613Z" fill="#2750E0"/>
<path d="M64.1797 37.4613C64.7825 37.4613 65.2711 36.6265 65.2711 35.5968C65.2711 34.5671 64.7825 33.7324 64.1797 33.7324C63.577 33.7324 63.0884 34.5671 63.0884 35.5968C63.0884 36.6265 63.577 37.4613 64.1797 37.4613Z" fill="#2750E0"/>
</svg>
