<svg width="111" height="110" viewBox="0 0 111 110" fill="none" xmlns="http://www.w3.org/2000/svg">
<rect x="0.5" width="110" height="110" rx="55" fill="#03238F"/>
<g clip-path="url(#clip0_960_2247)">
<path d="M81.641 54.0252C81.641 54.0252 81.6266 54.0224 81.615 54.0195C81.292 53.9365 80.9718 53.8536 80.6488 53.7706C78.3384 53.1898 76.5415 51.3817 75.9732 49.0844C75.9242 48.8842 75.8723 48.6868 75.8232 48.4894C73.2216 38.4304 64.257 27.1097 52.2725 27.064C40.288 27.1097 37.7959 38.4304 35.1942 48.4894C35.1423 48.6868 35.0932 48.887 35.0442 49.0844C34.476 51.3817 32.679 53.1898 30.3687 53.7706C30.0456 53.8507 29.7226 53.9337 29.4024 54.0195C29.3909 54.0224 29.3851 54.0224 29.3764 54.0252C28.1967 54.3399 27.5853 55.6216 28.0756 56.7345C29.1024 59.0576 30.1206 61.8327 30.9051 65.0312C31.5657 67.7262 31.9377 70.2323 32.1368 72.4667C32.2521 73.7627 33.5847 74.6009 34.8077 74.1375C37.1844 73.2391 39.988 73.3879 42.4916 73.1362C45.3183 72.8501 48.145 72.5668 50.9716 72.2807C52.4686 72.1291 53.9627 71.9775 55.4597 71.8287L55.5001 71.8487L55.5433 71.8287C57.0432 71.9803 58.5431 72.132 60.0429 72.2836C62.8696 72.5697 65.6963 72.8529 68.5229 73.139C71.0294 73.3908 73.8302 73.242 76.2069 74.1403C77.4298 74.6038 78.7624 73.7655 78.8778 72.4696C79.0768 70.2352 79.4489 67.729 80.1094 65.034C80.8939 61.8355 81.9121 59.0604 82.939 56.7374C83.4293 55.6245 82.8178 54.3428 81.6381 54.0281L81.641 54.0252Z" fill="#2750E0"/>
<path d="M62.8262 46.2092C62.8262 51.5935 58.8862 55.0609 52.8925 55.0609C46.8988 55.0609 42.9587 51.5963 42.9587 46.2092C42.9587 40.8221 45.7623 35.1089 51.756 35.1089C57.7497 35.1089 62.8233 40.825 62.8233 46.2092H62.8262Z" fill="white"/>
<path d="M89.2644 54.3771C89.0221 54.2884 88.774 54.2026 88.5086 54.1111C87.5539 53.7878 86.504 54.2312 86.0685 55.1381C84.9493 57.4612 83.7956 60.3479 82.9216 63.7466C81.9987 67.3314 81.6208 70.5642 81.5025 73.2191C81.465 74.0431 81.9438 74.8098 82.7111 75.1245C84.2715 75.7653 86.6829 76.4119 89.273 75.6681C93.5563 74.435 96.3772 69.7975 97.8367 64.0528C100.185 54.8177 95.8984 49.7253 91.2747 53.988C90.7354 54.483 89.9566 54.6289 89.2672 54.3743L89.2644 54.3771Z" fill="#2750E0"/>
<path d="M21.7357 54.3771C21.978 54.2884 22.2261 54.2026 22.4914 54.1111C23.4461 53.7878 24.4961 54.2312 24.9316 55.1381C26.0507 57.4612 27.2045 60.3479 28.0784 63.7466C29.0014 67.3314 29.3793 70.5642 29.4975 73.2191C29.535 74.0431 29.0562 74.8098 28.289 75.1245C26.7285 75.7653 24.3172 76.4119 21.7271 75.6681C17.4438 74.435 14.6229 69.7975 13.1634 64.0528C10.8155 54.8177 15.1017 49.7253 19.7253 53.988C20.2647 54.483 21.0435 54.6289 21.7328 54.3743L21.7357 54.3771Z" fill="#2750E0"/>
<path d="M56.5473 42.7492C56.9191 42.5463 57.3858 42.6821 57.5896 43.0524C57.7933 43.4227 57.657 43.8874 57.2852 44.0904L56.5908 44.469L58.2015 45.0358L58.2742 45.0657C58.6263 45.231 58.8025 45.6385 58.6702 46.0119C58.5378 46.3851 58.144 46.5916 57.7658 46.5003L57.6901 46.4786L54.4597 45.3427C54.1741 45.2424 53.9743 44.9839 53.9498 44.6833C53.9253 44.3827 54.0809 44.0957 54.3465 43.9507L56.5473 42.7492Z" fill="#2750E0"/>
<path d="M47.6963 43.0524C47.8874 42.7052 48.3097 42.5639 48.6681 42.7148L48.7386 42.7492L50.9395 43.9507C51.205 44.0957 51.3606 44.3827 51.3361 44.6833C51.3116 44.9839 51.1118 45.2423 50.8262 45.3427L47.5958 46.4786C47.196 46.6192 46.7569 46.4101 46.6158 46.0119C46.4746 45.6136 46.6845 45.1764 47.0844 45.0358L48.6944 44.469L48.0007 44.0904L47.934 44.0493C47.6133 43.8297 47.5053 43.3996 47.6963 43.0524Z" fill="#2750E0"/>
<path d="M70.9543 30.0908C70.0717 30.2367 69.4862 29.204 70.0804 28.5402C70.6746 27.8765 71.3841 26.8809 71.961 25.5391C73.3916 22.2262 78.6671 24.8353 75.0415 28.0081C73.5041 29.3527 72.0821 29.902 70.9543 30.0908Z" fill="#2750E0"/>
<path d="M71.8746 33.1893C71.465 32.8374 71.7275 32.1708 72.2668 32.1908C72.8062 32.2109 73.5475 32.1536 74.3984 31.9047C76.5011 31.2896 77.3058 34.7285 74.4243 34.2736C73.2042 34.0819 72.3995 33.6384 71.8774 33.1893H71.8746Z" fill="#2750E0"/>
</g>
<defs>
<clipPath id="clip0_960_2247">
<rect width="86" height="52" fill="white" transform="translate(12.5 24)"/>
</clipPath>
</defs>
</svg>
