<svg width="111" height="110" viewBox="0 0 111 110" fill="none" xmlns="http://www.w3.org/2000/svg">
<rect x="0.5" width="110" height="110" rx="55" fill="#B7E58D"/>
<g clip-path="url(#clip0_960_2219)">
<path d="M82.3228 49.4399C81.8106 45.8368 81.1711 42.2544 80.2738 38.7613C77.1728 26.6731 70.3451 13.055 56.0606 13C41.776 13.055 34.9483 26.6731 31.8473 38.7613C30.95 42.2544 30.3106 45.8368 29.7983 49.4399C28.7325 56.9314 28.2306 64.5054 28.3819 72.0726V72.1035C28.4163 73.5578 29.7433 74.6305 31.1803 74.3761C34.1817 73.8466 37.709 73.4547 41.666 73.4547C44.9973 73.4547 48.0296 73.7332 50.694 74.1389C52.2376 74.3726 53.5921 73.0662 53.3962 71.5156C53.2449 70.3089 53.3377 69.7863 53.6059 69.0093C54.0666 67.6684 55.012 66.9258 56.0503 66.833C56.0503 66.833 56.0571 66.833 56.0606 66.833C56.0606 66.833 56.0674 66.833 56.0709 66.833C57.1091 66.9258 58.0546 67.6684 58.5152 69.0093C58.7868 69.7863 58.8762 70.3089 58.725 71.5156C58.529 73.0662 59.8835 74.3726 61.4272 74.1389C64.095 73.7332 67.1272 73.4547 70.4551 73.4547C74.4122 73.4547 77.9395 73.8466 80.9408 74.3761C82.3778 74.6305 83.7014 73.5578 83.7393 72.1035V72.0726C83.8905 64.5089 83.3852 56.9314 82.3228 49.4399Z" fill="#2750E0"/>
<path d="M85.0661 80.2243C85.0971 79.9183 85.1246 79.6054 85.1555 79.2719C85.2518 78.0721 84.4233 76.9925 83.2406 76.7587C80.2049 76.1536 76.5023 75.6826 72.2908 75.6826C67.8456 75.6826 63.9711 76.2086 60.8426 76.8584C59.8731 77.0613 59.1202 77.8383 58.9792 78.8216C58.6939 80.8156 58.6492 83.7895 60.2787 86.564C62.9775 91.1435 69.207 93.0241 76.327 93.0035C87.7718 92.9726 92.4405 86.509 86.1113 82.4349C85.3756 81.9571 84.9768 81.1044 85.0696 80.2312H85.0661V80.2243Z" fill="#2750E0"/>
<path d="M27.3849 80.2243C27.4777 81.0975 27.0789 81.9536 26.3432 82.4281C20.0174 86.5022 24.6827 92.9657 36.1275 93.0001C43.2474 93.0207 49.5148 90.9304 51.0034 87.6161C52.5848 84.9378 53.2105 81.5067 53.293 79.2101C53.3343 78.0583 52.5333 77.0441 51.4022 76.8137C48.3115 76.1811 44.5126 75.6826 40.1671 75.6826C35.9522 75.6826 32.253 76.1536 29.2173 76.7587C28.0346 76.9925 27.2061 78.0721 27.3024 79.2719C27.3299 79.6054 27.3574 79.9183 27.3918 80.2243H27.3883H27.3849Z" fill="#2750E0"/>
<path d="M67.5087 36.0213C67.5087 42.4917 62.5134 46.7136 55.3729 46.7136C48.2323 46.7136 43.8318 42.4951 43.8318 36.0213C43.8318 29.5474 48.2289 22.6816 55.3729 22.6816C62.5169 22.6816 67.5087 29.5509 67.5087 36.0213Z" fill="white"/>
<path d="M52.4678 35.9867C53.1004 35.9867 53.6092 35.1478 53.6092 34.113C53.6092 33.0781 53.0969 32.2393 52.4678 32.2393C51.8387 32.2393 51.3264 33.0781 51.3264 34.113C51.3264 35.1478 51.8387 35.9867 52.4678 35.9867Z" fill="#2750E0"/>
<path d="M58.8694 35.9867C59.502 35.9867 60.0108 35.1478 60.0108 34.113C60.0108 33.0781 59.4986 32.2393 58.8694 32.2393C58.2403 32.2393 57.728 33.0781 57.728 34.113C57.728 35.1478 58.2403 35.9867 58.8694 35.9867Z" fill="#2750E0"/>
</g>
<defs>
<clipPath id="clip0_960_2219">
<rect width="65.4545" height="80" fill="white" transform="translate(23.5 13)"/>
</clipPath>
</defs>
</svg>
