<svg width="102" height="133" viewBox="0 0 102 133" fill="none" xmlns="http://www.w3.org/2000/svg">
<path d="M92.0785 39.9566C90.0873 31.0891 87.9625 25.1117 84.4745 18.6089C77.8862 6.31257 69.5873 0.978919 55.6489 0.0855994C53.17 -0.0720453 49.7756 -0.00636002 48.1052 0.236676C37.3875 1.79342 29.6966 6.06953 24.2242 13.5182C21.0503 17.8403 19.7206 21.164 16.52 32.8757C15.05 38.2356 12.1968 47.287 10.1789 52.9885C4.05162 70.2835 1.7263 80.1034 0.456746 94.0221C0.3632 95.06 0.289722 96.0846 0.229586 97.0831C0.0892664 99.6317 2.40116 101.622 4.95363 101.162C10.1187 100.229 16.2593 99.5266 23.1617 99.5266C29.0551 99.5266 34.3939 100.039 39.0445 100.768C41.4767 101.149 43.6617 99.3098 43.6684 96.886C43.6818 93.9761 44.1829 91.953 45.1651 90.7444C47.9982 87.2894 52.3281 88.0119 53.7781 92.1764C54.2324 93.4638 54.3861 94.3243 54.1322 96.3211C53.8048 98.8828 56.0766 101.044 58.6692 100.656C63.146 99.9864 68.2376 99.5266 73.8304 99.5266C80.4721 99.5266 86.3989 100.177 91.4371 101.05C93.8492 101.471 96.0743 99.6973 96.1344 97.2933C96.1344 97.2736 96.1344 97.2604 96.1344 97.2407C96.5821 75.0062 95.0385 53.179 92.0718 39.95L92.0785 39.9566Z" fill="#2750E0"/>
<path d="M95.4729 111.875C95.5264 111.369 95.5731 110.851 95.6199 110.299C95.7803 108.315 94.3904 106.528 92.4059 106.141C87.3076 105.142 81.0936 104.361 74.0175 104.361C66.5538 104.361 60.0457 105.228 54.7937 106.305C53.1633 106.64 51.9004 107.928 51.6666 109.55C51.1855 112.847 51.112 117.767 53.8516 122.352C58.3819 129.926 68.8456 133.032 80.7995 133C100.017 132.947 107.854 122.26 97.2303 115.521C95.9941 114.733 95.3259 113.32 95.4796 111.875H95.4729Z" fill="#2750E0"/>
<path d="M43.4946 111.429C43.5481 110.923 43.5948 110.404 43.6416 109.852C43.802 107.869 42.4122 106.082 40.4277 105.694C35.3294 104.696 29.1153 103.914 22.0392 103.914C14.7426 103.914 8.36808 104.742 3.17627 105.786C1.27862 106.167 -0.0644321 107.842 0.00238658 109.747C0.136024 113.544 1.19176 119.219 3.84446 123.646C6.34348 129.124 16.8674 132.579 28.8213 132.547C48.0383 132.494 55.8761 121.807 45.252 115.068C44.0158 114.279 43.3476 112.867 43.5013 111.422L43.4946 111.429Z" fill="#2750E0"/>
<path d="M74.8656 37.3973C74.8656 48.0961 66.4807 55.077 54.4859 55.077C42.4911 55.077 35.1085 48.1027 35.1085 37.3973C35.1085 26.6919 42.4911 15.3374 54.4859 15.3374C66.4807 15.3374 74.8656 26.6985 74.8656 37.3973Z" fill="white"/>
<path d="M55.5165 37.342C56.5765 37.342 57.4357 35.9543 57.4357 34.2424C57.4357 32.5305 56.5765 31.1428 55.5165 31.1428C54.4565 31.1428 53.5972 32.5305 53.5972 34.2424C53.5972 35.9543 54.4565 37.342 55.5165 37.342Z" fill="#2750E0"/>
<path d="M66.2645 37.342C67.3245 37.342 68.1838 35.9543 68.1838 34.2424C68.1838 32.5305 67.3245 31.1428 66.2645 31.1428C65.2045 31.1428 64.3452 32.5305 64.3452 34.2424C64.3452 35.9543 65.2045 37.342 66.2645 37.342Z" fill="#2750E0"/>
</svg>
