<svg width="91" height="113" viewBox="0 0 91 113" fill="none" xmlns="http://www.w3.org/2000/svg">
<path d="M72.188 5.74883L69.0325 26.3422C68.5935 29.1786 64.7611 29.0013 64.5508 26.1354L63.3892 10.161C62.3739 4.44882 57.7367 0.322266 52.3403 0.322266H47.2184H44.6848C40.2031 0.322266 36.1421 3.1882 34.3585 7.62991L29.8951 33.1082C29.4378 35.7279 25.953 35.7574 25.4591 33.1476L20.4926 7.01929C18.7548 2.94199 14.9682 0.332114 10.7974 0.332114C3.84618 0.332114 -1.24836 7.38369 0.45287 14.6421L14.6938 75.1616C16.1298 81.248 21.2152 85.5124 27.0506 85.5124C33.1604 85.5124 38.4104 80.8442 39.572 74.3835L43.0476 54.9818C43.8433 50.5401 49.7976 50.678 50.4104 55.1591L53.5385 78.0767C54.1239 82.351 57.5264 85.5223 61.5416 85.5223C65.2002 85.5223 68.4014 82.8828 69.3526 79.0813L86.5204 10.5352C87.8101 5.39428 84.2155 0.341963 79.2673 0.341963C76.0752 0.341963 73.2215 2.5185 72.1788 5.76853L72.188 5.74883Z" fill="#2750E0"/>
<path d="M59.8705 93.4333L62.8256 102.171C64.2163 106.286 68.251 108.491 72.0295 107.211L86.8875 102.192C89.8884 101.176 91.5353 97.589 90.5106 94.297C89.431 90.8526 85.9086 89.1964 82.9351 90.7408L74.024 95.3841C72.2674 96.2986 70.1814 95.3232 69.541 93.2809L68.5072 89.9584C67.6106 87.0932 64.6829 85.7215 62.2218 87.0119C60.0535 88.1397 59.0288 90.9338 59.8705 93.4232V93.4333Z" fill="#2750E0"/>
<path d="M19.6662 90.6798L18.3565 99.5968C17.7375 103.795 20.2044 107.796 23.9899 108.74L38.8359 112.437C41.841 113.184 44.8102 111.05 45.3753 107.727C45.9674 104.257 43.6889 100.983 40.4775 100.708L30.8612 99.8623C28.9595 99.6951 27.6139 97.7583 27.9638 95.7134L28.5379 92.3708C29.0313 89.4902 27.1385 86.7767 24.4743 86.5408C22.133 86.3343 20.0429 88.1335 19.6662 90.6798Z" fill="#2750E0"/>
<path d="M54.0348 36.4071C55.9826 36.4071 57.5617 31.695 57.5617 25.8824C57.5617 20.0697 55.9826 15.3577 54.0348 15.3577C52.0869 15.3577 50.5078 20.0697 50.5078 25.8824C50.5078 31.695 52.0869 36.4071 54.0348 36.4071Z" fill="white"/>
<path d="M43.4539 36.4071C45.68 36.4071 47.4846 31.695 47.4846 25.8824C47.4846 20.0697 45.68 15.3577 43.4539 15.3577C41.2278 15.3577 39.4231 20.0697 39.4231 25.8824C39.4231 31.695 41.2278 36.4071 43.4539 36.4071Z" fill="white"/>
<path d="M55.5462 33.3998C57.2158 33.3998 58.5693 31.3804 58.5693 28.8893C58.5693 26.3981 57.2158 24.3787 55.5462 24.3787C53.8766 24.3787 52.5232 26.3981 52.5232 28.8893C52.5232 31.3804 53.8766 33.3998 55.5462 33.3998Z" fill="#2750E0"/>
<path d="M45.4691 33.3998C47.1387 33.3998 48.4922 31.3804 48.4922 28.8893C48.4922 26.3981 47.1387 24.3787 45.4691 24.3787C43.7995 24.3787 42.446 26.3981 42.446 28.8893C42.446 31.3804 43.7995 33.3998 45.4691 33.3998Z" fill="#2750E0"/>
</svg>
