<svg width="17" height="16" viewBox="0 0 17 16" fill="none" xmlns="http://www.w3.org/2000/svg">
<path d="M8.84839 1.33301C12.5217 1.33301 15.5154 4.32667 15.5154 8C15.5154 11.6733 12.5217 14.667 8.84839 14.667C5.17506 14.667 2.1814 11.6733 2.1814 8C2.1814 4.32667 5.17506 1.33301 8.84839 1.33301ZM8.84839 10.333C8.4802 10.333 8.1814 10.6318 8.1814 11C8.1814 11.3682 8.4802 11.667 8.84839 11.667C9.21658 11.667 9.51538 11.3682 9.51538 11C9.51538 10.6318 9.21658 10.333 8.84839 10.333ZM8.84839 4.33301C8.19226 4.33301 8.18149 5.01592 8.1814 5.02344C8.1814 5.02344 8.30959 6.1279 8.36304 7.12109C8.39403 7.69726 8.3281 8.46166 8.26733 9.00195C8.22789 9.35266 8.49938 9.66699 8.85229 9.66699C9.20253 9.66697 9.47326 9.35717 9.43726 9.00879C9.38138 8.46811 9.32142 7.69972 9.35229 7.12109C9.4053 6.12788 9.51538 5.02344 9.51538 5.02344C9.51529 5.01592 9.50452 4.33301 8.84839 4.33301Z" fill="#FB1D1D"/>
</svg>
